<svg width="1200" height="675" viewBox="0 0 1200 675" fill="none" xmlns="http://www.w3.org/2000/svg" role="img" aria-labelledby="title desc">
  <title id="title">创业团队插画封面</title>
  <desc id="desc">白底暖光办公室里，三位团队成员围着电脑深夜协作，窗外是夜色，桌上有咖啡与便签。</desc>
  <defs>
    <linearGradient id="paper" x1="82" y1="42" x2="1118" y2="637" gradientUnits="userSpaceOnUse">
      <stop stop-color="#FBF8F2"/>
      <stop offset="1" stop-color="#F1E8DC"/>
    </linearGradient>
    <radialGradient id="warmGlow" cx="0" cy="0" r="1" gradientUnits="userSpaceOnUse" gradientTransform="translate(1028 112) rotate(150.556) scale(290.207 207.004)">
      <stop stop-color="#F3C597" stop-opacity="0.92"/>
      <stop offset="1" stop-color="#F3C597" stop-opacity="0"/>
    </radialGradient>
    <radialGradient id="coolGlow" cx="0" cy="0" r="1" gradientUnits="userSpaceOnUse" gradientTransform="translate(182 124) rotate(21.314) scale(264.309 179.898)">
      <stop stop-color="#DCE7F0" stop-opacity="0.95"/>
      <stop offset="1" stop-color="#DCE7F0" stop-opacity="0"/>
    </radialGradient>
    <linearGradient id="nightSky" x1="0" y1="0" x2="0" y2="260" gradientUnits="userSpaceOnUse">
      <stop stop-color="#5B7592"/>
      <stop offset="1" stop-color="#324B63"/>
    </linearGradient>
    <linearGradient id="screenGlow" x1="0" y1="0" x2="0" y2="102" gradientUnits="userSpaceOnUse">
      <stop stop-color="#EEF5FA"/>
      <stop offset="1" stop-color="#D6E0EA"/>
    </linearGradient>
  </defs>

  <rect width="1200" height="675" fill="url(#paper)"/>
  <ellipse cx="1028" cy="112" rx="224" ry="164" fill="url(#warmGlow)"/>
  <ellipse cx="182" cy="124" rx="186" ry="140" fill="url(#coolGlow)"/>
  <path d="M0 540C144 506 282 500 430 519C578 538 705 560 830 551C957 542 1061 507 1200 517V675H0V540Z" fill="#E7DDD1"/>
  <ellipse cx="620" cy="552" rx="324" ry="74" fill="#C9D3DC" fill-opacity="0.42"/>

  <g opacity="0.42">
    <path d="M846 102C884 132 922 148 964 154" stroke="#FFF7EC" stroke-width="10" stroke-linecap="round"/>
    <path d="M140 174C186 185 230 181 278 162" stroke="#D7E1EB" stroke-width="8" stroke-linecap="round"/>
  </g>

  <g id="window" transform="translate(92 102)">
    <rect width="332" height="284" rx="32" fill="#ECE4D8"/>
    <rect x="20" y="20" width="292" height="244" rx="24" fill="url(#nightSky)"/>
    <circle cx="236" cy="76" r="28" fill="#F4E8CE" fill-opacity="0.92"/>
    <circle cx="82" cy="68" r="3" fill="#F6F0E7" fill-opacity="0.75"/>
    <circle cx="118" cy="104" r="3" fill="#F6F0E7" fill-opacity="0.55"/>
    <circle cx="166" cy="58" r="2.6" fill="#F6F0E7" fill-opacity="0.68"/>
    <circle cx="270" cy="116" r="2.6" fill="#F6F0E7" fill-opacity="0.58"/>
    <path d="M20 198C60 183 104 183 144 194C178 203 232 208 312 194V264H20V198Z" fill="#455F78"/>
    <path d="M20 221C59 210 102 211 142 220C178 228 226 232 312 219V264H20V221Z" fill="#384F65"/>
    <path d="M166 20V264" stroke="#F8F3EA" stroke-width="10" stroke-linecap="round" opacity="0.72"/>
    <path d="M20 140H312" stroke="#F8F3EA" stroke-width="10" stroke-linecap="round" opacity="0.72"/>
  </g>

  <g id="lamp" transform="translate(918 96)">
    <ellipse cx="88" cy="94" rx="148" ry="114" fill="#F2C79B" fill-opacity="0.18"/>
    <path d="M64 0H112" stroke="#907E70" stroke-width="8" stroke-linecap="round"/>
    <path d="M86 0V80" stroke="#907E70" stroke-width="8" stroke-linecap="round"/>
    <path d="M22 76C34 34 60 14 88 14C117 14 142 34 154 76L132 108H44L22 76Z" fill="#EFD7B6"/>
    <path d="M44 108H132" stroke="#CAA37B" stroke-width="8" stroke-linecap="round"/>
  </g>

  <g id="desk" transform="translate(364 372)">
    <ellipse cx="242" cy="176" rx="286" ry="40" fill="#C6D0D9" fill-opacity="0.22"/>
    <path d="M36 150C38 112 63 84 99 84H384C421 84 447 112 448 150L460 174H24L36 150Z" fill="#B78463"/>
    <rect x="50" y="32" width="384" height="96" rx="28" fill="#C79571"/>
    <rect x="70" y="50" width="344" height="12" rx="6" fill="#D9AF90" fill-opacity="0.55"/>
    <rect x="78" y="128" width="18" height="74" rx="9" fill="#9E6E4D"/>
    <rect x="388" y="128" width="18" height="74" rx="9" fill="#9E6E4D"/>
    <rect x="154" y="-6" width="178" height="106" rx="16" fill="#475E75"/>
    <rect x="166" y="8" width="154" height="78" rx="12" fill="url(#screenGlow)"/>
    <path d="M214 108H272" stroke="#5E7387" stroke-width="8" stroke-linecap="round"/>
    <path d="M202 120H284" stroke="#5E7387" stroke-width="10" stroke-linecap="round"/>
    <ellipse cx="89" cy="74" rx="24" ry="8" fill="#F7F3EB"/>
    <path d="M104 74C104 63 111 57 121 57C131 57 138 63 138 74" stroke="#F7F3EB" stroke-width="5"/>
    <rect x="338" y="18" width="58" height="42" rx="10" fill="#F1E7D8"/>
    <path d="M352 35H382" stroke="#CEB89A" stroke-width="6" stroke-linecap="round"/>
    <path d="M352 47H372" stroke="#CEB89A" stroke-width="6" stroke-linecap="round"/>
    <rect x="26" y="18" width="46" height="34" rx="8" fill="#9AB08E"/>
    <path d="M42 28L56 42" stroke="#EDF4EC" stroke-width="5" stroke-linecap="round"/>
    <path d="M56 28L42 42" stroke="#EDF4EC" stroke-width="5" stroke-linecap="round"/>
  </g>

  <g id="left-person" transform="translate(356 204)">
    <ellipse cx="120" cy="316" rx="100" ry="22" fill="#C9B8A9" fill-opacity="0.24"/>
    <circle cx="118" cy="88" r="40" fill="#EFCDB4"/>
    <path d="M86 68C92 38 116 20 145 24C166 27 182 41 188 60C176 44 160 38 143 38C121 38 101 48 86 68Z" fill="#5F534D"/>
    <path d="M42 314C47 232 74 166 120 166C166 166 192 231 198 314H42Z" fill="#7D8C6F"/>
    <path d="M80 188C92 176 104 171 120 171C137 171 149 176 162 188" stroke="#A9BA9C" stroke-width="8" stroke-linecap="round"/>
    <path d="M123 166C125 217 135 257 159 285" stroke="#6B7B60" stroke-width="12" stroke-linecap="round"/>
    <path d="M80 276C110 246 140 236 170 238" stroke="#EFCDB4" stroke-width="18" stroke-linecap="round"/>
  </g>

  <g id="center-person" transform="translate(530 218)">
    <ellipse cx="132" cy="302" rx="126" ry="26" fill="#C9B8A9" fill-opacity="0.24"/>
    <circle cx="132" cy="72" r="44" fill="#EFCDB4"/>
    <path d="M96 58C103 23 132 0 166 6C190 10 209 29 214 54C198 37 181 30 160 30C133 30 112 39 96 58Z" fill="#6A5343"/>
    <path d="M44 302C50 215 86 144 132 144C178 144 214 214 220 302H44Z" fill="#C88A66"/>
    <path d="M88 167C100 155 115 149 132 149C151 149 166 155 177 167" stroke="#DCAB87" stroke-width="8" stroke-linecap="round"/>
    <path d="M56 260C88 230 125 218 166 220" stroke="#EFCDB4" stroke-width="20" stroke-linecap="round"/>
    <path d="M204 256C180 230 155 218 126 214" stroke="#EFCDB4" stroke-width="20" stroke-linecap="round"/>
  </g>

  <g id="right-person" transform="translate(742 210)">
    <ellipse cx="134" cy="306" rx="108" ry="24" fill="#C9B8A9" fill-opacity="0.24"/>
    <circle cx="130" cy="82" r="38" fill="#EFCDB4"/>
    <path d="M103 78C103 44 124 20 156 20C178 20 197 34 204 54C191 39 177 32 159 32C135 32 117 47 103 78Z" fill="#506A84"/>
    <path d="M54 304C59 224 87 159 130 159C173 159 199 224 206 304H54Z" fill="#6F8FB1"/>
    <path d="M87 182C99 171 113 166 130 166C146 166 160 171 172 182" stroke="#A8BED2" stroke-width="8" stroke-linecap="round"/>
    <path d="M94 258C119 233 151 221 187 222" stroke="#EFCDB4" stroke-width="18" stroke-linecap="round"/>
    <path d="M149 170C156 215 170 251 190 278" stroke="#607D9C" stroke-width="12" stroke-linecap="round"/>
  </g>

  <g opacity="0.36">
    <path d="M846 530C906 508 964 507 1038 526" stroke="#C8B39B" stroke-width="8" stroke-linecap="round"/>
  </g>
</svg>
